<svg xmlns="http://www.w3.org/2000/svg" viewBox="0 0 760 200" width="760" height="200">
  <defs>
    <linearGradient id="bg" x1="0%" y1="0%" x2="100%" y2="100%">
      <stop offset="0%" stop-color="#080c14"/>
      <stop offset="100%" stop-color="#0d1424"/>
    </linearGradient>
    <linearGradient id="grad1" x1="0%" y1="0%" x2="100%" y2="100%">
      <stop offset="0%" stop-color="#00e5ff"/>
      <stop offset="100%" stop-color="#7c3aed"/>
    </linearGradient>
    <linearGradient id="iconFill" x1="0%" y1="0%" x2="0%" y2="100%">
      <stop offset="0%" stop-color="#1af0ff"/>
      <stop offset="100%" stop-color="#6d28d9"/>
    </linearGradient>
    <linearGradient id="sqlGrad" x1="0%" y1="0%" x2="100%" y2="0%">
      <stop offset="0%" stop-color="#00e5ff"/>
      <stop offset="100%" stop-color="#38bdf8"/>
    </linearGradient>
  </defs>
  <rect width="760" height="200" rx="20" fill="url(#bg)"/>
  <circle cx="100" cy="100" r="58" fill="none" stroke="#00e5ff" stroke-width="1" opacity="0.12"/>
  <circle cx="100" cy="100" r="46" fill="none" stroke="#00e5ff" stroke-width="1" opacity="0.18"/>
  <g transform="translate(100,100)">
    <rect x="-26" y="-22" width="52" height="44" rx="2" fill="url(#iconFill)" opacity="0.18"/>
    <ellipse cx="0" cy="22" rx="26" ry="8" fill="url(#iconFill)" opacity="0.7"/>
    <rect x="-26" y="-22" width="52" height="44" fill="url(#iconFill)" opacity="0.1"/>
    <ellipse cx="0" cy="-22" rx="26" ry="8" fill="#00e5ff" opacity="0.9"/>
    <ellipse cx="0" cy="-4" rx="26" ry="8" fill="none" stroke="#00e5ff" stroke-width="1.2" opacity="0.55"/>
    <ellipse cx="0" cy="10" rx="26" ry="8" fill="none" stroke="#7c3aed" stroke-width="1" opacity="0.45"/>
    <line x1="-26" y1="-22" x2="-26" y2="22" stroke="url(#grad1)" stroke-width="1.5" opacity="0.5"/>
    <line x1="26" y1="-22" x2="26" y2="22" stroke="url(#grad1)" stroke-width="1.5" opacity="0.5"/>
  </g>
  <rect x="186" y="52" width="2" height="96" rx="1" fill="url(#grad1)" opacity="0.55"/>
  <text x="208" y="106" font-family="'Segoe UI', sans-serif" font-size="62" font-weight="900" letter-spacing="-2" fill="url(#sqlGrad)">SQL</text>
  <text x="328" y="106" font-family="'Segoe UI', sans-serif" font-size="62" font-weight="300" letter-spacing="-2" fill="white" opacity="0.92">Manager</text>
  <text x="209" y="128" font-family="'Segoe UI', sans-serif" font-size="13" font-weight="400" fill="#5d7a9e" letter-spacing="1.5">DATABASE MANAGEMENT FRAMEWORK  ·  PYTHON</text>
</svg>
